<?xml version="1.0" encoding="UTF-8"?>
<svg id="Capa_2" data-name="Capa 2" xmlns="http://www.w3.org/2000/svg" viewBox="0 0 29.52 33.47">
  <defs>
    <style>
      .cls-1 {
        stroke-width: 0px;
      }
    </style>
  </defs>
  <g id="Capa_1-2" data-name="Capa 1">
    <path class="cls-1" d="m0,0h29.52c0,.11,0,.21-.01.31-.13,1.46-.26,2.91-.39,4.37-.15,1.64-.3,3.28-.44,4.92-.13,1.4-.25,2.81-.37,4.21-.12,1.4-.25,2.79-.38,4.19-.13,1.4-.25,2.81-.37,4.21-.12,1.4-.25,2.79-.38,4.19-.1,1.16-.21,2.32-.31,3.48-.02.26-.02.26-.27.33-3.9,1.08-7.8,2.16-11.7,3.25-.11.03-.21.02-.32,0-3.91-1.09-7.81-2.17-11.72-3.25-.18-.05-.18-.05-.2-.24-.12-1.4-.25-2.81-.37-4.21-.14-1.52-.27-3.04-.41-4.56-.11-1.28-.23-2.57-.34-3.85-.12-1.4-.25-2.79-.38-4.19-.11-1.28-.23-2.57-.34-3.85-.12-1.4-.25-2.79-.38-4.19-.09-1.04-.18-2.08-.28-3.12C.12,1.43.07.88.02.34c0-.11-.01-.21-.02-.34Zm6.5,17.34h12.8c0,.09,0,.15-.01.22-.07.81-.15,1.61-.22,2.42-.06.68-.12,1.35-.18,2.03,0,.11-.05.15-.15.17-1.3.35-2.59.7-3.89,1.04-.06.02-.14.02-.2,0-1.3-.35-2.6-.7-3.9-1.05-.08-.02-.13-.06-.13-.15-.06-.73-.13-1.46-.19-2.19-.02-.21-.04-.42-.06-.62h-3.67c0,.06,0,.1,0,.14.07.75.13,1.49.2,2.24.1,1.07.19,2.13.29,3.2.02.19.01.19.2.24,2.41.67,4.82,1.34,7.22,2.01.11.03.21.04.32,0,.26-.08.52-.15.79-.22,2.15-.6,4.3-1.19,6.46-1.79.13-.04.18-.09.19-.23.05-.63.11-1.27.17-1.9.09-1.03.19-2.07.28-3.1.08-.91.16-1.82.24-2.73.1-1.16.21-2.32.31-3.48.09-1.03.18-2.07.28-3.1.12-1.39.25-2.77.37-4.16,0-.05,0-.1,0-.16H5.51c.11,1.23.22,2.44.33,3.68h14.12c-.11,1.27-.22,2.52-.34,3.79H6.17c.11,1.24.22,2.45.33,3.69Z"/>
  </g>
</svg>