<?xml version="1.0" encoding="UTF-8"?>
<svg id="Capa_2" data-name="Capa 2" xmlns="http://www.w3.org/2000/svg" viewBox="0 0 36.52 36.52">
  <defs>
    <style>
      .cls-1 {
        stroke-width: 0px;
      }
    </style>
  </defs>
  <g id="Capa_1-2" data-name="Capa 1">
    <g>
      <path class="cls-1" d="m0,18.26C.01,8.17,8.14-.08,18.41,0c4.91.04,9.15,1.8,12.64,5.24,3.68,3.63,5.52,8.1,5.46,13.26-.06,4.77-1.76,8.95-5.07,12.39-3.68,3.82-8.25,5.72-13.54,5.62-5.01-.09-9.33-1.98-12.82-5.61C1.91,27.6,0,23.22,0,18.26Zm15.8-5.04c-1.83-.36-3.4-.13-4.63.36-1.37.54-2.42,1.45-3.07,2.77-.87,1.77-.96,3.62-.45,5.51.46,1.67,1.51,2.8,3.1,3.45,1.18.48,2.41.66,3.67.68,1.11.02,2.21-.06,3.31-.22.58-.08,1.15-.19,1.73-.28.19-.03.33-.09.28-.32-.01-.07,0-.15,0-.22,0-5.21,0-10.42,0-15.64,0-.58,0-1.17,0-1.75,0-.31,0-.31-.32-.31-1.07,0-2.14,0-3.21,0-.44,0-.4-.04-.4.39,0,1.73,0,3.46,0,5.19v.4Zm2.44,16.32c.45.28.9.44,1.32.64.69.33,1.38.66,2.07.99.11.05.2.11.34.04.79-.37,1.52-.83,2.13-1.46.8-.83,1.29-1.85,1.55-2.97.27-1.16.33-2.34.34-3.51.02-3.18,0-6.36,0-9.53,0-.05,0-.1,0-.15.02-.18-.04-.26-.24-.26-1.17,0-2.34,0-3.51,0-.17,0-.21.07-.2.22,0,.08,0,.17,0,.26,0,2.78,0,5.55,0,8.33,0,.98-.04,1.97-.2,2.95-.13.81-.34,1.59-.8,2.29-.5.76-1.2,1.29-1.99,1.73-.26.14-.55.25-.83.45Zm3.82-20.2c0,.58,0,1.17,0,1.75,0,.18.03.25.24.25,1.16,0,2.31,0,3.47,0,.19,0,.25-.06.25-.25,0-1.18,0-2.36,0-3.54,0-.18-.04-.26-.24-.25-1.16,0-2.31,0-3.47,0-.2,0-.24.08-.24.25,0,.6,0,1.19,0,1.79Z"/>
      <path class="cls-1" d="m15.8,19.56c0,.95,0,1.9,0,2.85,0,.29,0,.28-.3.32-.59.08-1.19.11-1.78,0-1.24-.22-1.98-.91-2.24-2.14-.19-.88-.15-1.77.17-2.62.35-.92,1.04-1.45,1.98-1.65.63-.14,1.25-.12,1.88.03.22.05.29.14.29.37-.01.95,0,1.9,0,2.85Z"/>
    </g>
  </g>
</svg>