<?xml version="1.0" encoding="UTF-8"?>
<svg id="Capa_2" data-name="Capa 2" xmlns="http://www.w3.org/2000/svg" viewBox="0 0 38.76 34.58">
  <defs>
    <style>
      .cls-1 {
        stroke-width: 0px;
      }
    </style>
  </defs>
  <g id="Capa_1-2" data-name="Capa 1">
    <path class="cls-1" d="m11.58,30.79c-1.48-1.16-3.05-2.27-4.13-3.84-2.27-2.77-4.01-5.97-5.2-9.33-.72-2.19-.97-4.53-1.9-6.64-.97-1.53.17-3.2,1.84-3.68.74-.14,2.05-.85.47-.34-1.42,1.04-1.55-.94-.1-1.07.99-.13,1.36-.94,1.02-1.67-1.07-.69,2.58-1.46.75-2.49-1.91-2.06,2.67-2.46,1.54-.12-.27,1.8,3.2-.33,2.4,1.75.82,1,3.07.23,3.01,1.63,1.19.08,1.6,1.09,2.72,1.16,1.16.52,3.27.94,3.66,2.25-1.15.91-3.82-1.88-3.95.64.35,3.73.26,7.57,1.62,11.13.65,2.15,2.21,3.84,3.62,5.52,1.35,1.64,3.18,2.8,5.05,3.77,1.64.77,3.4,1.28,5.19,1.61.72-.55,2-2.61,3.13-1.74.05.98-2.24,2.04-.11,1.93,1.25-.38,2.12.97,3.15-.25.95,1.13,3.95-.72,3.27,1.58-.91.59-2.25.23-3.16,1.05-1.51-.75-2.71.67-4.38.49-1.86.33-3.75.47-5.63.47-3.09-.24-6.24-.35-9.18-1.42-1.66-.48-3.27-1.42-4.72-2.37h0Zm2.61,1.13c1.62.7,3.2,1.43,4.97,1.66,2.81.39,5.71.99,8.53.44-1.28-.58-2.6.22-3.87-.41-1.52.33-3.16-.08-4.71-.29-1.76-.78-3.67-1.32-5.32-2.34-2.06-.75,1.07.97,1.62,1.11,1.29.73-1.42-.38-1.8-.68-1.08-.61-1.22-.48-.11.14.22.13.44.27.68.38h0Zm-3.08-2.17c1.57.58,0-1.1-.72-1-.32-.55-1.21-.9-.58-1.2-1.14.4-1.19-1.5-1.73-1.23-1.2-.38-.47-1.73-1.9-2.55-.13-.87-1.42-1.63-1.84-2.94-.18-.67-1.46-2.6-.68-.81.67,1.73,1.85,3.21,2.83,4.69.76,1.41,1.66,2.88,3.04,3.76.47.45.92,1.13,1.58,1.28h0Zm-4.51-4.95c.05-.24.29.51,0,0h0Zm6.39,5.65c.35-.16-.5-.2,0,0h0Zm.85.31c-.09-.43-.39.24,0,0h0Zm1.06.44c.51-.48-.78-.3,0,0h0Zm1.82,1.02c.31-.45-.99-.17,0,0h0Zm-3.5-2.44c.79-.51-1.02,0,0,0h0Zm.8.4c-.02-.27-.28.12,0,0h0Zm3.99,2.49c.64.41,3.75.89,1.8.17-.33.07-3.6-.93-1.8-.17h0Zm-6.33-4.93c-.06-.27-1-.3,0,0h0Zm1.86,1.08c.48-.34-1-.26,0,0h0Zm1.56.96c.69-.26-1.12-.26,0,0h0Zm-4.18-2.86c.75.58,3.04.07,1.15-.34-.86-.46-2.79-.77-1.47.28l.32.07h0Zm5.23,3.19c.31-.53-1.31-.31,0,0h0Zm-1.59-1.26c1.84.52-1.55-1.16-.45-.19l.24.11.21.08h0Zm3.19,1.84c1.74.02-1.57-.24,0,0h0Zm-7.5-4.78c-.07-.32-.43.03,0,0h0Zm10.45,6.43c.05-.59-.57.44,0,0h0Zm-7.48-4.61c-.11-.31-.54-.01,0,0h0Zm-2.81-2.02c1-.06-1.37-.44,0,0h0Zm-3.33-2.15c-.12-.48-1.09-.86,0,0h0Zm8.74,5.54c-.18-.21-.09.05,0,0h0Zm5.44,3.34c-.02-.32-.3.12,0,0h0Zm-5.92-3.83c.1-.41-.85-.12,0,0h0Zm-4.05-2.57c.74-.08-1.19-.5,0,0h0Zm6.85,4.26c1.16-.46-1.13-.22,0,0h0Zm-3.56-2.42c1.34.17-1.59-.91-.29-.1l.29.1h0Zm4.65,2.86c1.25-.75.84,1.75,2.12.21,1.26-.92-1.09,1.14.47.16,1.13-.75,2.79.36,3.84.72.76-.04,1.49.65,2.27.23,1.49-.4-2.92-.6-1.76-1.31-1.36.4-2.37-.47-3.04-1.35-1.53-.35-3.3-1.14-4.06-2.49-.31-.51.45.07-.27-.76-.92-.82-1.38-1.75-2-2.75-.74-.39-.83-1.56-.9-.04,0-.96-.89-1.6-1.11-1.33,0-.92.96-.46.29-1.14-.15-.96-.62-1.95-.77-3.03-.22-.52-.03-1.63-.76-.46-.27,1.24-.09-1.53.33-.61.54-.93-.2-.82-.23-.69.35-.79.22-1.9-.09-1.48.19-.83.3-3.07-.28-2.67.35-.87.67-3.99-.86-2.8-.62,0-1.69.22-2.2.48,1.59.88-.16.32-.81.18-.08.81-.73.46-1.53.47,1.28.16-.62,1.31-1.36.86-.95.46.82,1.59.02,1.95.1.53-1.46-.19-1.34,1.03-.93-.39-.13,1.45.34.83,1.58.43,1.11,1.4,1.15,2.32-.26.54-1.27-1.26-.22-1.18-.82-1.34-.91-.48-1.59.14-.16.04,1.74.88.55,1.3,1.05.16,1.08,1.08,1.29,1.66.63.66.5-.73,1.26.06-.48-.7-2.53-1.98-.88-1.57,0-.71-.3-1.28.21-1.27.5-.91-.53,2.24.61,1.09.31-.14.39-.91.95.07.82.8.3,1.39-.86.65.21.7,1.54.95,1.29,2.04.27.96.64.61.96.55.25.93.4.25.41-.2,1.17.25.89.94,1.26,1.42.8.36-1.15-2.46.23-.85,1.45,1.31.54,1.86-.76,1.65.82-.07,1.09,1.11,2.12,1.07.94.45,1.58,2.16-.04,1.45-.56-.51-2.55-1.13-.93-.17,1.5.69,2.69,1.11,4.14,1.98,1.03.74,1.48,1.58,1.87,1.75-.87.42-2.62-.33-1.32-.56-.81-.15-1.72-.56-.95.45.66.55,2.34.49,2.64.56-.26.56-.69.61,0,.65-.79.42.25.48.32.72h0Zm-1.61-4.54c-.48-.5-.6-1.44-.09-.62.27.11.85,1.53.09.62h0Zm5.23,3.32c.3-.02,0,.23,0,0h0Zm-5.99-4.55c-.02-.76.17.58,0,0h0Zm-.52-.7c-.6-1.16.76.33,0,0h0Zm-6.3-4.35c.35-.09.17.6,0,0h0Zm5.02,2.72c.22-.81.25.68,0,0h0Zm-3.54-2.46c-.25-.45.52.42,0,0h0Zm3.04.97c-.57-1.28.4-.7.13.21l-.13-.21h0Zm-5.24-3.5c-.25-.42-.68-1.65-.54-2.02.12.61,1.3,2.63.58.84-.8-1.5.95.49,1.13.86.08.37-.49-.1-.1.77-.71-1-.42.55-1.07-.45h0Zm-1.62-1.12c.07-.97.37.67,0,0h0Zm.73.25c.35-.73.59,1.02,0,0h0Zm-1.75-1.36c-.6-.6-1.04-1.15.03-.37.41.02-.91-1.26.1-.4,1.07.19.53,1.75-.13.78h0Zm.92-.02c.35-.35.19.34,0,0h0Zm.57.18c-.53-1,.64.42,0,0h0Zm-1.13-1.08c-1.75-1.56,2.2.82.29.29l-.29-.29h0Zm5.02,2.92c-.76-.45-.2-3.2.06-1.32.74-.24-.04.97.51.96-.09.76-.33,1.04-.57.36h0Zm1.86,1.1c.07-.83.16.57,0,0h0Zm-.32-.32c.08-.35,0,.42,0,0h0Zm-6.22-4.21c-1.13-1.55,3.27,1.57.72.39-.27-.07-.59-.1-.72-.39h0Zm3.58,1.9c-.11-1.31.24.22,0,0h0Zm2.72,1.74c.21-.75.02.49,0,0h0Zm-6.12-4.23c.67-.14,2.77,1.18.84.38-.21-.24-.67-.13-.84-.38h0Zm5.75,2.87c.07-1.34.4-.8,0,.19v-.19h0Zm-5.25-3.33c.27-.4-.72-1.81.14-.51.38.3,1.09.5.46.62.99.87-.24.24-.6-.12h0Zm4.97,2.91c.19-1.52.17.89,0,0h0Zm-5.54-4.32c.21-.09.11.28,0,0h0Zm1.3.77c.33-.7.61.78,0,0h0Zm3.65,2.03c0-.27.07.39,0,0h0Zm-.21-.47c-.51-1.25.47.66,0,0h0Zm-.31-.82c-.08-.52.29.65,0,0h0Zm.51-.82c-.35-.61.44-2.7.53-1.41-.37,1.01-.11,1.57.15.22.47-1.07-.1,2.1-.68,1.19h0Zm.52-3.11c.15-.19.03.22,0,0h0Zm-.87,17.14c-.21-.18.03.11,0,0h0Zm1.79.91c1,.26.99-.15.09-.28-.48-.45-2.01-.93-.64-.06.09.23.38.22.55.33h0Zm-3.54-2.35c.55.41,2.07,1.16.78.16.43-.5-.83-.77-.41-1.11-1.07-.65-.84-.59-.09-.57-1.28-.57.19-.53.12-.82-.49-.1-2.45-.87-1.3.06-1.17-.6-.28.22-.63.14-1.2-.33,1.07.91-.19.61.69.54,1.85,1.4.29.58-.2.3,1.12.74,1.44.97h0Zm1.87,1.08c2.28.73-1.12-.9,0,0h0Zm9.59,5.81c.03-.45-.31.39,0,0h0Zm.99.41c.53-.51.02.81.87-.12,0-.67-.03-1.07-.98-.25-.26.15-.38.76.1.38h0Zm-15.65-9.83c-.16-.63-1.13-.63,0,0h0Zm1.05.69c-.39-.65-1.4-.59,0,0h0Zm5.99,3.61c.59.52,2.69.38.71.06-.29-.43-1.86-.33-.71-.06h0Zm8.23,5.09c.9-.76-.87.34,0,0h0Zm1.87,1.29c0-.24-.39.11,0,0h0Zm0-.34c1-1.06-.97.06,0,0h0ZM4.53,20.1c-.85-1.21-.53-1.76-1.35-2.75-.16-.76-1.41-2.47-.65-.66.69,1.06.9,2.71,1.99,3.4h0Zm19.43,12.17c1.83-1.19-.75-.52,0,0h0Zm1.4.55c.92-.79-.58-.16,0,0h0ZM6.81,20.93c.26-.39-.68-.05,0,0h0Zm18.26,11.51c.89-.57-.2-.49-.16.05l.16-.05h0Zm-12.07-7.61c-.03-.39-.47.03,0,0h0Zm.75.43c-.24-.48-.36.08,0,0h0Zm12.75,7.56c1.14-.82-.69-.16-.24.16l.24-.16h0Zm-.44-.21c.93-.78-.98.34,0,0h0Zm2.23,1.48c.62-.42-.76-.13,0,0h0ZM7.38,20.65c.83.19,3.34,2.06,1.86.13-.76-.22-.3-2.07-1.07-1.75.52.87.43,1.23-.66.69-1.37-.67-.77.33-.5.61-.36.08.48.32.37.32h0Zm-3.8-3c.15-.62-1.38-3.4-.72-1.4.24.42.21,1.22.72,1.4h0Zm6.98,4.31c-.43-.36-.02-.05,0,0h0Zm1.06.25c0-.66-1.17-.27,0,0h0Zm9.18,5.79c-.18-.45-.69,0,0,0h0Zm.44.32c-.07-.25-.25.05,0,0h0Zm3.64,2.29c.35-.26-.44-.03,0,0h0ZM5.47,18.13c1-.39-1.07-.28,0,0h0Zm14.51,9.14c-.01-.65-.64.16,0,0h0Zm-14.91-10.06c.64-.22-.6-.14,0,0h0Zm1.87.9c-.01-.21-.2.08,0,0h0Zm22.76,13.96c.83-.17,2.71.42,3.01-.22-1-.02-3.47-.71-3.59.16l.22.03.35.02h0ZM7.54,18.26c.01-.66-.51-.02,0,0h0Zm-4.9-3.4c-.22-1.25-.85-.19,0,0h0Zm1.17.29c.01-.4-1.07-.36,0,0h0Zm.67.33c-.19-.16-.15.2,0,0h0Zm4.21,2.7c.2-.18-.47-.13,0,0h0Zm-4.65-3.44c-.11-.94-1.36-.14,0,0h0Zm-2.4-1.56c-.03-.44-.23.16,0,0h0Zm.36-.27c-.06-.52-.31.07,0,0h0Zm1.97,1.18c.83-.33-1.52-.68-.17-.06l.17.06h0Zm26.38,16.29c.53-.49-.68-.15,0,0h0Zm3.19,1.65c.21-.63-.54.08,0,0h0ZM4.16,13.06c.09-.61-.66.12,0,0h0Zm-2.8-1.88c-.15-.86-.13-2.38,1.31-1.87-1.92.38,1.33,2.39.92.8.81.04,1.58-.48,1.16.31,1.59-.18,2.7-1.56,4.24-1.36,1.2-.16,2.51-.28,3.8-.76,1.06-.08,2.08-1.22,1.5-1.9-1.45-.12-2.97.06-4.57.38-1.77.37-3.39,1.07-5.18,1.37-1.75.23.35.65-.15.74-.91.32,1.09.53-.12.86-.74-.14-1.52-.4-1.2-1.18-1.67.22-3.14.91-1.82,2.61h.1Zm4.03-2.05c.39-1.44,2.1,1.19.64.19-.17-.13-.46-.24-.64-.19h0Zm.08-.7c.57-.42.3.24,0,0h0Zm.72.01c.05-.66,1.64.35.26.24l-.26-.24h0Zm.98-.39c.36-.42.1.37,0,0h0Zm.25-.17c.6-.72,3.38-.46,1.34-.07-.55-.41-.97.24-1.34.07h0Zm3.64-.56c-.09-1.96,1.81.7,0,0h0Zm1.03,0c.38-.99,1.46-.4.18-.2.03.11-.04.51-.18.2h0ZM3.75,12.55c1.13-.69-1.2-.6,0,0h0Zm.83.23c.4-.42-.86-.17,0,0h0Zm-2.46-1.74c.64-.5-.76-.19,0,0h0Zm33.27,20.82c.02-.57-.49.26,0,0h0Zm-3.38-2.31c.1-.66-.43.06,0,0h0Zm4.31,2.53c.9,0,2.73-.28.77-.28-.31.05-1.79.04-.77.28h0ZM5.32,12.38c.73-.05,1.14-.8-.14-.76-1.99-.2,1.75.68-.25.43-.27.18.38.38.4.33h0Zm.64.32c-.08-.47-.23.25,0,0h0Zm.76-2.03c.32-.39-.44-.1,0,0h0Zm-2.42-4.05c1.3-.44,3.08-.94,3.69.22-.62-.75-.25-1.49.34-.39.83,1.11,1.25-.51.71-.88.62.77,1.32,1.13.41.05.99-1.19-1.98.16-2.65.14-.32.15-3.34.77-2.51.86h0Zm.76-1.46c.74-.56,2.57.33,1.4-.56-.11-.1-2.56.68-1.4.56h0Zm2.7.11c.87.02-.37-1.17.66-.63-.17-.55-1.2-.66-1.71-.88-.29.51.58,1.51,1.05,1.51h0Zm-2.23-2.45c.3-.41-.53.21,0,0h0Zm1.11.26c1.4-.19-.36-.6-.28-.01h.28Zm-2.06-1.61c-.99-1.29,1.85.22.85-1.13-.84-.67-1.65.76-.85,1.13h0Zm12.64,6.81c.45-.8-1.86-1.08-.3-.28.14.05.11.34.3.28h0Z"/>
  </g>
</svg>