<?xml version="1.0" encoding="UTF-8"?>
<svg id="Capa_2" data-name="Capa 2" xmlns="http://www.w3.org/2000/svg" viewBox="0 0 33.51 33.36">
  <defs>
    <style>
      .cls-1 {
        stroke-width: 0px;
      }
    </style>
  </defs>
  <g id="Capa_1-2" data-name="Capa 1">
    <path class="cls-1" d="m18.04,12.47c.13.14.25.28.38.41.95.94,1.89,1.89,2.84,2.83.12.12.17.22.11.39-.49,1.37.33,2.67,1.59,3.15,1.36.51,3.11-.32,3.39-2.01.2-1.25-.78-2.88-2.46-2.91-.23,0-.46.02-.69.07-.14.03-.24.01-.33-.09-.21-.21-.41-.43-.62-.64-.82-.82-1.63-1.66-2.48-2.46-.32-.3-.58-.57-.38-1.04.11-1.57-1.11-2.87-2.66-2.82-.16,0-.32.02-.47.06-.17.05-.29-.01-.4-.13-.38-.38-.75-.76-1.14-1.14-.82-.81-1.65-1.62-2.47-2.43-.02-.02-.04-.05-.06-.08.02-.03.02-.07.05-.09.96-.95,1.92-1.9,2.89-2.85.32-.32.69-.56,1.14-.65.77-.15,1.43.05,1.98.59,1.01.99,2.01,2,3.02,3,3.38,3.37,6.76,6.73,10.14,10.1.47.47.95.95,1.42,1.42.41.41.65.9.67,1.47.03.63-.22,1.17-.67,1.62-1.27,1.26-2.53,2.51-3.79,3.77-3.43,3.42-6.86,6.84-10.3,10.26-.16.16-.32.33-.49.49-.71.66-1.72.79-2.54.29-.23-.14-.43-.33-.62-.52-1.52-1.51-3.04-3.03-4.56-4.54-3.22-3.2-6.43-6.41-9.65-9.61-.27-.27-.54-.54-.69-.9-.36-.88-.19-1.67.45-2.35.52-.55,1.07-1.08,1.61-1.61,2.67-2.66,5.34-5.33,8.01-7.99.09-.09.18-.19.27-.29.09-.1.17-.1.27,0,.69.7,1.38,1.4,2.07,2.09.45.46.91.91,1.37,1.36.15.14.19.28.12.48-.31.91.06,2.18.86,2.69.15.09.28.21.43.28.17.08.19.19.19.35,0,2.86-.01,5.72,0,8.58,0,.25-.07.38-.29.5-.85.47-1.27,1.24-1.29,2.17-.02,1.22.59,1.99,1.68,2.43,1.33.54,3.12-.23,3.42-1.99.16-.97-.22-1.79-.99-2.39-.31-.24-.4-.49-.4-.87.02-2.22.01-4.45,0-6.67,0-.5-.02-1-.03-1.51,0-.08,0-.16,0-.24.03-.01.05-.03.08-.04Z"/>
  </g>
</svg>