<?xml version="1.0" encoding="UTF-8"?>
<svg id="Capa_2" data-name="Capa 2" xmlns="http://www.w3.org/2000/svg" viewBox="0 0 29.47 33.47">
  <defs>
    <style>
      .cls-1 {
        stroke-width: 0px;
      }
    </style>
  </defs>
  <g id="Capa_1-2" data-name="Capa 1">
    <path class="cls-1" d="m14.64,33.47c-.04-.07-.11-.07-.17-.09-.57-.16-1.15-.32-1.72-.48-2.76-.77-5.53-1.53-8.29-2.3-.55-.15-1.11-.31-1.66-.46-.12-.03-.13-.04-.14-.16-.04-.51-.09-1.03-.13-1.54-.05-.53-.1-1.05-.14-1.58-.03-.36-.06-.72-.09-1.07-.04-.4-.07-.81-.11-1.21-.03-.35-.06-.7-.09-1.05-.04-.41-.07-.82-.11-1.23-.03-.36-.06-.73-.1-1.09-.03-.39-.07-.78-.11-1.17-.03-.36-.06-.72-.09-1.07-.04-.4-.07-.81-.11-1.21-.03-.35-.06-.7-.09-1.05-.04-.41-.07-.82-.11-1.23-.03-.36-.06-.72-.09-1.07-.04-.4-.07-.8-.11-1.19-.03-.36-.06-.72-.09-1.07-.04-.4-.07-.81-.11-1.21-.03-.36-.06-.73-.1-1.09-.03-.39-.07-.78-.11-1.17-.03-.36-.06-.73-.1-1.09-.04-.4-.07-.8-.11-1.19-.03-.36-.06-.72-.09-1.07-.04-.4-.07-.81-.11-1.21-.03-.36-.06-.73-.1-1.09-.03-.39-.07-.78-.11-1.17-.03-.36-.06-.73-.1-1.09C.03.52.01.35,0,.19c0-.05,0-.11,0-.17C.05.01.08,0,.12,0c.05,0,.11,0,.16,0,9.64,0,19.27,0,28.91,0,.09,0,.17,0,.27,0,0,.05,0,.09,0,.13-.07.75-.13,1.5-.2,2.25-.06.67-.13,1.35-.19,2.02-.05.53-.09,1.07-.14,1.6-.05.52-.1,1.04-.14,1.56-.03.37-.06.74-.1,1.11-.03.38-.07.77-.11,1.15-.03.36-.06.72-.09,1.07-.04.4-.07.81-.11,1.21-.03.36-.06.72-.09,1.07-.04.4-.07.8-.11,1.19-.03.36-.06.72-.09,1.07-.04.4-.07.81-.11,1.21-.03.36-.06.73-.1,1.09-.03.39-.07.78-.11,1.17-.03.36-.06.72-.1,1.07-.04.4-.07.81-.11,1.21-.03.36-.06.73-.1,1.09-.03.39-.07.78-.11,1.17-.03.36-.06.72-.1,1.07-.04.4-.07.81-.11,1.21-.03.36-.06.73-.1,1.09-.03.39-.07.78-.11,1.17-.03.37-.06.74-.1,1.11-.03.31-.06.62-.09.94-.05.02-.09.04-.13.05-1.41.39-2.83.79-4.24,1.18-2.48.69-4.96,1.37-7.43,2.06-.08.02-.15.06-.22.09h-.12ZM23.95,6.15c-.1,0-.18,0-.26,0-3.06,0-6.11,0-9.17,0-2.91,0-5.81,0-8.72,0-.06,0-.12,0-.18,0-.04,0-.08,0-.12.02,0,.06,0,.1,0,.15.01.18.03.35.04.53.03.36.06.72.09,1.07.04.4.07.8.11,1.19.03.36.06.73.1,1.09.03.39.07.78.11,1.17.03.36.06.73.1,1.09.04.4.07.81.11,1.21.03.36.06.72.09,1.07.03.38.07.77.11,1.15.03.37.06.74.1,1.11,0,.09.02.19.04.28.09.02.18.01.27.01,4.08,0,8.16,0,12.24,0,.05,0,.11,0,.16,0,.04,0,.07.02.11.02-.04.47-.08.93-.12,1.39-.03.31-.06.62-.08.93-.04.4-.07.81-.11,1.21-.03.35-.06.7-.09,1.05,0,.06-.02.12-.03.18-.24.07-.48.13-.71.19-1.07.29-2.14.58-3.21.87-.11.03-.22.04-.34,0-1.26-.34-2.52-.68-3.78-1.02-.06-.02-.11-.04-.18-.06-.04-.49-.09-.98-.13-1.46-.04-.48-.08-.97-.14-1.46-.06,0-.11-.01-.15-.01-1.13,0-2.26,0-3.4,0-.05,0-.09.01-.15.02.16,1.86.33,3.71.49,5.55,0,.07.02.15.03.22.06.02.11.04.16.05,2.41.67,4.81,1.33,7.22,2,.12.03.23.04.36,0,2.41-.67,4.83-1.34,7.24-2.01.05-.01.1-.04.15-.06.01-.13.03-.25.04-.37.03-.37.06-.74.1-1.11.04-.4.07-.81.11-1.21.03-.36.06-.72.09-1.07.03-.38.07-.76.1-1.13.03-.37.06-.74.1-1.11.05-.53.1-1.05.15-1.58.05-.53.09-1.07.14-1.6.06-.66.12-1.32.18-1.98,0-.04,0-.09,0-.15-.09,0-.17,0-.25,0-4.29,0-8.58,0-12.87,0-.07,0-.14,0-.2,0-.04,0-.08-.01-.12-.02-.05-.58-.11-1.16-.16-1.73-.05-.59-.11-1.17-.16-1.76,0-.09-.02-.17,0-.27.47,0,.94,0,1.41,0,.47,0,.95,0,1.42,0s.94,0,1.4,0c.47,0,.94,0,1.4,0,.47,0,.94,0,1.4,0h4.23c.47,0,.95,0,1.42,0,.47,0,.93,0,1.4,0,.01-.05.03-.08.03-.11.1-1.15.21-2.31.31-3.46,0-.03,0-.07,0-.12Z"/>
  </g>
</svg>