<?xml version="1.0" encoding="UTF-8"?>
<svg id="Capa_2" data-name="Capa 2" xmlns="http://www.w3.org/2000/svg" viewBox="0 0 34.29 34.29">
  <defs>
    <style>
      .cls-1 {
        stroke-width: 0px;
      }
    </style>
  </defs>
  <g id="Capa_1-2" data-name="Capa 1">
    <path class="cls-1" d="m0,34.29V0h34.29v34.29H0Zm28.05-14.64c.08-.05.15-.08.21-.12.48-.31.96-.61,1.43-.92.24-.15.48-.31.72-.46.08-.05.14-.12.07-.22-.24-.33-.47-.67-.74-.98-.49-.55-1.1-.95-1.8-1.18-.76-.25-1.55-.33-2.35-.28-.74.05-1.44.22-2.1.56-1.13.6-1.83,1.52-2.09,2.77-.11.53-.09,1.07-.04,1.6.08.81.37,1.53.88,2.16.54.68,1.24,1.15,2,1.53.65.33,1.33.6,2,.91.42.19.83.4,1.23.63.26.15.48.35.63.62.43.8.1,1.7-.71,2.06-.63.29-1.3.33-1.98.2-.91-.17-1.61-.67-2.13-1.42-.07-.1-.14-.21-.22-.31-.1-.14-.13-.14-.28-.06-.39.23-.78.46-1.18.69-.36.21-.72.41-1.08.62-.14.08-.16.13-.1.24.29.54.64,1.05,1.1,1.46.73.65,1.55,1.14,2.51,1.4.66.17,1.33.28,2.02.29.63,0,1.25-.04,1.86-.18.76-.18,1.47-.48,2.09-.97.81-.64,1.26-1.48,1.45-2.47.09-.48.07-.96.03-1.44-.06-.65-.24-1.26-.57-1.83-.37-.62-.9-1.09-1.49-1.49-.88-.6-1.87-.99-2.84-1.42-.4-.17-.8-.35-1.18-.57-.5-.29-.9-.67-.92-1.32-.02-.54.16-.98.63-1.25.78-.46,1.92-.28,2.53.5.15.19.29.4.44.62Zm-9.46,1.77h0c0-1.85,0-3.69,0-5.54,0-.21,0-.21-.21-.21-.94,0-1.87,0-2.81,0-.18,0-.19,0-.19.19,0,.02,0,.04,0,.06,0,3.58,0,7.15,0,10.73,0,.41-.07.8-.24,1.18-.11.26-.28.46-.54.58-.39.19-.8.23-1.22.17-.24-.04-.49-.12-.69-.24-.46-.29-.75-.74-1-1.22-.08-.16-.08-.18-.24-.09-.24.14-.48.28-.71.43-.53.32-1.06.64-1.58.97-.17.1-.18.12-.08.3.1.18.2.35.31.52.84,1.3,2.08,1.97,3.59,2.17.52.07,1.05.07,1.57,0,.68-.07,1.32-.25,1.92-.58.97-.53,1.56-1.36,1.87-2.4.16-.54.23-1.1.23-1.66,0-1.79,0-3.58,0-5.37Z"/>
  </g>
</svg>