<?xml version="1.0" encoding="UTF-8"?>
<svg id="Capa_2" data-name="Capa 2" xmlns="http://www.w3.org/2000/svg" viewBox="0 0 33.23 33.24">
  <defs>
    <style>
      .cls-1 {
        stroke-width: 0px;
      }
    </style>
  </defs>
  <g id="Capa_1-2" data-name="Capa 1">
    <g>
      <path class="cls-1" d="m25.7,9.61c.08-.05.11-.08.14-.09,1.3-.03,2.6-.18,3.88.16,1.89.51,3.35,2.25,3.45,4.21.08,1.74.11,3.48.02,5.22-.13,2.72-2.18,4.6-4.9,4.64-1.58.02-3.16,0-4.74,0-2.21,0-4.43,0-6.64,0-.82,0-1.24.32-1.25.95-.01.64.44,1,1.26,1,2.06,0,4.11,0,6.17,0,.19,0,.38,0,.54,0,.06.07.1.09.1.12.02,1.28.18,2.57-.15,3.83-.5,1.94-2.26,3.44-4.26,3.52-1.75.07-3.52.08-5.27,0-2.57-.11-4.52-2.2-4.55-4.83-.03-3-.01-6.01,0-9.01,0-1.1.65-1.73,1.75-1.74,3.46-.01,6.92-.01,10.38,0,.99,0,1.92-.12,2.72-.77.89-.72,1.36-1.64,1.37-2.78.01-1.3,0-2.6,0-3.9,0-.19,0-.38,0-.54Zm-5.83,19.7c.03-.52-.39-.99-.92-1.01-.53-.03-1,.38-1.04.9-.04.51.38,1,.9,1.04.56.04,1.04-.37,1.06-.93Z"/>
      <path class="cls-1" d="m9.55,7.53c-.03-.12-.07-.18-.07-.25.01-1-.04-2.01.06-3C9.76,2,11.66.16,13.95.06c1.74-.08,3.48-.08,5.22,0,2.58.1,4.55,2.22,4.57,4.81.02,2.5,0,4.99,0,7.49,0,.46.01.91.01,1.37,0,1.29-.61,1.92-1.9,1.92-3.55,0-7.1,0-10.65,0-1.66,0-2.94.88-3.48,2.41-.14.39-.19.82-.2,1.24-.03,1.28,0,2.57,0,3.85,0,.17,0,.35,0,.49-.06.06-.09.1-.11.1-1.26.02-2.53.16-3.78-.14C1.61,23.08.08,21.23.03,19.16c-.04-1.69-.05-3.37,0-5.06.07-2.59,2.24-4.6,4.94-4.61,3.74,0,7.49,0,11.23,0,.19,0,.39,0,.58-.03.49-.08.81-.48.8-.96,0-.49-.33-.87-.82-.95-.17-.03-.35-.02-.53-.02-2.04,0-4.08,0-6.12,0-.19,0-.38,0-.57,0Zm4.8-2.59c.53,0,.97-.44.98-.96,0-.53-.47-1-1.02-.98-.53.01-.96.47-.95.99,0,.53.46.96.99.96Z"/>
    </g>
  </g>
</svg>