<?xml version="1.0" encoding="UTF-8"?>
<svg id="Capa_2" data-name="Capa 2" xmlns="http://www.w3.org/2000/svg" viewBox="0 0 37.22 33.12">
  <defs>
    <style>
      .cls-1 {
        stroke-width: 0px;
      }
    </style>
  </defs>
  <g id="Capa_1-2" data-name="Capa 1">
    <g>
      <circle class="cls-1" cx="18.61" cy="16.53" r="3.32"/>
      <g>
        <path class="cls-1" d="m18.61,24.15c-4.67,0-8.75-.55-11.81-1.6-4.2-1.43-6.81-3.74-6.81-6.02s2.41-4.35,6.46-5.76c3.31-1.16,7.63-1.79,12.15-1.79h0c4.44,0,8.7.63,11.99,1.76,4.14,1.43,6.62,3.59,6.62,5.79s-2.7,4.6-7.04,6.04c-3.08,1.02-7.19,1.58-11.57,1.58Zm0-13.58c-4.29,0-8.53.62-11.63,1.7-3.72,1.3-5.39,3.07-5.39,4.26s1.79,3.17,5.73,4.52c2.89.99,6.79,1.51,11.29,1.51,4.21,0,8.14-.53,11.07-1.5,4.09-1.35,5.95-3.3,5.95-4.53,0-1.15-1.74-2.98-5.55-4.29-3.14-1.08-7.21-1.67-11.48-1.67Z"/>
        <path class="cls-1" d="m11.07,33.11c-.67,0-1.28-.14-1.79-.44-1.9-1.1-2.56-4.26-1.76-8.47.65-3.45,2.26-7.5,4.52-11.42h0c2.22-3.84,4.89-7.22,7.52-9.51C22.86.39,25.97-.67,27.88.42c1.98,1.14,2.63,4.63,1.71,9.12-.65,3.18-2.22,7.01-4.41,10.81-2.33,4.04-4.85,7.3-7.28,9.43-2.47,2.16-4.92,3.33-6.83,3.33Zm2.34-19.54h0c-2.14,3.71-3.72,7.69-4.33,10.93-.74,3.88-.03,6.21,1,6.8,1.07.62,3.64.03,6.78-2.71,2.3-2.01,4.7-5.13,6.95-9.03,2.11-3.65,3.61-7.32,4.23-10.34.87-4.22.12-6.8-.95-7.42-.99-.57-3.45.01-6.49,2.66-2.5,2.18-5.05,5.41-7.18,9.11Z"/>
        <path class="cls-1" d="m26.16,33.12c-1.8,0-4.09-1.09-6.47-3.14-2.66-2.29-5.38-5.71-7.64-9.62-2.22-3.84-3.81-7.84-4.49-11.26-.84-4.3-.21-7.53,1.7-8.63,1.98-1.14,5.33.03,8.75,3.07,2.43,2.15,4.97,5.43,7.16,9.22,2.34,4.04,3.91,7.85,4.53,11.02.86,4.35.17,7.76-1.8,8.91-.51.29-1.1.44-1.75.44ZM11,1.64c-.39,0-.71.08-.95.21-.99.57-1.71,2.99-.93,6.95.64,3.25,2.16,7.08,4.3,10.77h0c2.15,3.71,4.81,7.06,7.3,9.21,2.99,2.57,5.36,3.12,6.39,2.53,1.07-.62,1.85-3.14,1.04-7.22-.59-3-2.1-6.64-4.35-10.53-2.11-3.65-4.54-6.78-6.84-8.83-2.49-2.21-4.62-3.1-5.95-3.1Z"/>
      </g>
    </g>
  </g>
</svg>