<?xml version="1.0" encoding="UTF-8"?>
<svg id="Capa_2" data-name="Capa 2" xmlns="http://www.w3.org/2000/svg" viewBox="0 0 27.74 34.2">
  <defs>
    <style>
      .cls-1 {
        stroke-width: 0px;
      }
    </style>
  </defs>
  <g id="Capa_1-2" data-name="Capa 1">
    <path class="cls-1" d="m14.71,0c.08.03.15.07.23.07,1.18,0,2.35.11,3.51.28,2.12.32,4.2.83,6.12,1.83.87.45,1.65,1.01,2.28,1.77.41.5.72,1.06.81,1.7.07.45.08.91.08,1.36,0,5.19,0,10.38,0,15.57,0,1.69,0,3.38,0,5.07,0,.38-.06.77-.14,1.15-.15.73-.55,1.31-1.07,1.83-.99,1-2.2,1.61-3.49,2.1-1.37.52-2.79.85-4.24,1.08-1.26.2-2.52.32-3.79.34-.44,0-.89.07-1.33.05-1.17-.05-2.35-.08-3.52-.23-1.62-.2-3.22-.49-4.77-1-1.08-.36-2.12-.79-3.07-1.44-.69-.47-1.31-1-1.76-1.73C.17,29.18,0,28.51,0,27.79c0-3.06,0-6.12,0-9.18C0,14.58,0,10.53,0,6.49c0-1.29.52-2.32,1.48-3.16,1.26-1.12,2.78-1.74,4.36-2.23,1.11-.34,2.24-.59,3.39-.74,1.05-.14,2.11-.29,3.18-.28.16,0,.32-.05.47-.08.61,0,1.22,0,1.83,0Zm-.88,2.44c-1.28.02-2.55.07-3.8.28-.92.15-1.85.3-2.76.51-1.2.28-2.36.7-3.42,1.35-.45.28-.86.6-1.17,1.04-.28.4-.28.79,0,1.19.34.51.83.85,1.35,1.14,1.28.71,2.66,1.16,4.08,1.44.96.19,1.92.38,2.9.43.77.04,1.54.13,2.31.14.84.01,1.69-.04,2.53-.07.48-.02.97-.04,1.45-.1,1.15-.16,2.29-.34,3.41-.65,1.22-.33,2.4-.75,3.45-1.47.36-.24.68-.51.93-.88.26-.39.29-.78,0-1.15-.17-.23-.37-.45-.59-.63-.71-.59-1.54-.97-2.4-1.28-1-.37-2.03-.64-3.08-.82-.8-.14-1.61-.26-2.42-.33-.92-.08-1.85-.09-2.78-.14ZM2.49,9.92c-.01.09-.02.16-.02.23,0,1.16,0,2.33,0,3.49,0,.28.11.52.28.72.2.23.42.44.66.62.75.58,1.62.94,2.51,1.25,2.08.74,4.24,1.03,6.42,1.14,1.7.08,3.41.05,5.1-.16,1.16-.15,2.32-.35,3.45-.67,1.01-.29,2-.64,2.91-1.19.48-.29.93-.6,1.26-1.07.17-.23.25-.48.25-.77,0-1.09,0-2.19,0-3.28,0-.09-.01-.19-.02-.31-.09.03-.15.04-.21.08-.95.58-1.98.98-3.04,1.3-1.11.34-2.23.61-3.39.75-.89.11-1.78.27-2.67.3-1.85.06-3.71.09-5.56-.13-1.18-.14-2.35-.32-3.51-.6-1.47-.36-2.89-.84-4.2-1.63-.05-.03-.12-.04-.21-.07Zm0,7.41c0,.14-.02.27-.02.41,0,1.05,0,2.1,0,3.16,0,.39.13.7.38.97.34.36.73.68,1.16.93.81.46,1.67.79,2.56,1.06,1.06.32,2.14.55,3.24.68.56.06,1.12.14,1.69.18.81.06,1.63.1,2.44.12.52.01,1.05-.02,1.58-.06.72-.05,1.44-.09,2.15-.19.74-.1,1.47-.24,2.2-.39,1.34-.29,2.64-.71,3.85-1.38.46-.26.89-.57,1.23-.97.23-.27.36-.57.36-.94-.01-1.05,0-2.1,0-3.16,0-.12-.01-.24-.03-.42-.17.09-.29.14-.4.21-.74.42-1.51.75-2.31,1.02-1.71.59-3.47.92-5.26,1.11-1.1.11-2.21.15-3.32.17-.75.02-1.49-.04-2.24-.07-.43-.02-.86-.04-1.28-.1-.86-.12-1.72-.24-2.58-.4-1.31-.25-2.58-.6-3.8-1.15-.53-.24-1.04-.51-1.6-.78Zm22.81,7.41c-.14.06-.23.09-.32.13-.47.23-.93.5-1.41.7-1.47.62-3.01.98-4.58,1.26-1.24.22-2.49.34-3.75.39-1.77.07-3.54.02-5.3-.22-.99-.13-1.96-.28-2.93-.52-1.54-.37-3.02-.88-4.39-1.7-.03-.02-.08,0-.16,0,0,.16,0,.3,0,.45,0,.79.04,1.58-.01,2.37-.04.64.2,1.1.65,1.49.16.13.32.26.49.38.71.5,1.5.83,2.31,1.11,1.16.4,2.36.66,3.58.85,1.23.19,2.47.31,3.71.31.93,0,1.85.05,2.78-.07.48-.06.97-.04,1.45-.11.91-.14,1.83-.29,2.73-.49,1.23-.28,2.42-.67,3.52-1.3.44-.25.85-.53,1.19-.89.29-.3.45-.65.44-1.08-.02-.87,0-1.74,0-2.62,0-.13,0-.27,0-.45Z"/>
  </g>
</svg>